<?xml version="1.0" encoding="UTF-8"?>
<svg id="Ebene_1" xmlns="http://www.w3.org/2000/svg" version="1.1" viewBox="0 0 35.58 45.75">
  <!-- Generator: Adobe Illustrator 29.5.0, SVG Export Plug-In . SVG Version: 2.1.0 Build 137)  -->
  <defs>
    <style>
      .st0 {
        fill: #fff;
      }
    </style>
  </defs>
  <circle class="st0" cx="8.42" cy="42.76" r="2.99"/>
  <circle class="st0" cx="18.18" cy="42.76" r="2.99"/>
  <circle class="st0" cx="27.95" cy="42.76" r="2.99"/>
  <g>
    <path class="st0" d="M17.79,10.5c-1.67,0-3.02,1.36-3.02,3.02v2.39h6.04v-2.39c0-1.67-1.36-3.02-3.02-3.02Z"/>
    <path class="st0" d="M17.79.03C7.98.03,0,8.01,0,17.82,0,21.71,1.26,25.32,3.39,28.25l-2.22,6.61,6.84-2.19c2.81,1.86,6.17,2.94,9.79,2.94,9.81,0,17.79-7.98,17.79-17.79S27.6.03,17.79.03ZM24.68,23.98c0,.89-.72,1.61-1.61,1.61h-10.55c-.89,0-1.61-.72-1.61-1.61v-6.46c0-.89.72-1.61,1.61-1.61h.16v-2.39c0-2.82,2.3-5.12,5.12-5.12s5.12,2.3,5.12,5.12v2.39h.16c.89,0,1.61.72,1.61,1.61v6.46Z"/>
  </g>
</svg>